<mxfile host="app.diagrams.net" modified="2021-12-02T14:00:42.497Z" agent="5.0 (Windows NT 10.0; Win64; x64) AppleWebKit/537.36 (KHTML, like Gecko) Chrome/96.0.4664.45 Safari/537.36" etag="Hl51k2xixbO8PToi5h81" version="15.8.8" type="github">
  <diagram id="u6T7NlVzOqFnAeHy_9tT" name="Page-1">
    <mxGraphModel dx="1422" dy="705" grid="1" gridSize="10" guides="1" tooltips="1" connect="1" arrows="1" fold="1" page="1" pageScale="1" pageWidth="850" pageHeight="1100" math="0" shadow="0">
      <root>
        <mxCell id="0" />
        <mxCell id="1" parent="0" />
        <mxCell id="LWBJsEEs3vovtmcKvovJ-2" style="edgeStyle=orthogonalEdgeStyle;rounded=0;orthogonalLoop=1;jettySize=auto;html=1;exitX=0.5;exitY=1;exitDx=0;exitDy=0;entryX=0.5;entryY=0;entryDx=0;entryDy=0;" parent="1" source="LWBJsEEs3vovtmcKvovJ-3" target="LWBJsEEs3vovtmcKvovJ-5" edge="1">
          <mxGeometry relative="1" as="geometry" />
        </mxCell>
        <mxCell id="LWBJsEEs3vovtmcKvovJ-3" value="MULA" style="ellipse;whiteSpace=wrap;html=1;" parent="1" vertex="1">
          <mxGeometry x="110" y="70" width="100" height="40" as="geometry" />
        </mxCell>
        <mxCell id="LWBJsEEs3vovtmcKvovJ-4" style="edgeStyle=orthogonalEdgeStyle;rounded=0;orthogonalLoop=1;jettySize=auto;html=1;exitX=0.5;exitY=1;exitDx=0;exitDy=0;entryX=0.5;entryY=0;entryDx=0;entryDy=0;" parent="1" source="LWBJsEEs3vovtmcKvovJ-5" target="LWBJsEEs3vovtmcKvovJ-8" edge="1">
          <mxGeometry relative="1" as="geometry" />
        </mxCell>
        <mxCell id="LWBJsEEs3vovtmcKvovJ-5" value="PAPAR&lt;br&gt;Skrin untuk log masuk pengguna" style="shape=parallelogram;perimeter=parallelogramPerimeter;whiteSpace=wrap;html=1;fixedSize=1;" parent="1" vertex="1">
          <mxGeometry x="80" y="150" width="160" height="60" as="geometry" />
        </mxCell>
        <mxCell id="LWBJsEEs3vovtmcKvovJ-6" style="edgeStyle=orthogonalEdgeStyle;rounded=0;orthogonalLoop=1;jettySize=auto;html=1;exitX=1;exitY=0.5;exitDx=0;exitDy=0;entryX=0;entryY=0.5;entryDx=0;entryDy=0;" parent="1" source="LWBJsEEs3vovtmcKvovJ-8" target="LWBJsEEs3vovtmcKvovJ-9" edge="1">
          <mxGeometry relative="1" as="geometry" />
        </mxCell>
        <mxCell id="LWBJsEEs3vovtmcKvovJ-7" style="edgeStyle=orthogonalEdgeStyle;rounded=0;orthogonalLoop=1;jettySize=auto;html=1;exitX=0.5;exitY=1;exitDx=0;exitDy=0;entryX=0.5;entryY=0;entryDx=0;entryDy=0;" parent="1" source="LWBJsEEs3vovtmcKvovJ-8" target="LWBJsEEs3vovtmcKvovJ-13" edge="1">
          <mxGeometry relative="1" as="geometry" />
        </mxCell>
        <mxCell id="LWBJsEEs3vovtmcKvovJ-8" value="Pengguna&lt;br&gt;baharu?" style="rhombus;whiteSpace=wrap;html=1;" parent="1" vertex="1">
          <mxGeometry x="90" y="250" width="140" height="80" as="geometry" />
        </mxCell>
        <mxCell id="LWBJsEEs3vovtmcKvovJ-9" value="Daftar pengguna baharu" style="rounded=0;whiteSpace=wrap;html=1;" parent="1" vertex="1">
          <mxGeometry x="330" y="270" width="150" height="40" as="geometry" />
        </mxCell>
        <mxCell id="LWBJsEEs3vovtmcKvovJ-10" value="" style="endArrow=classic;html=1;rounded=0;exitX=0.5;exitY=0;exitDx=0;exitDy=0;" parent="1" source="LWBJsEEs3vovtmcKvovJ-9" edge="1">
          <mxGeometry width="50" height="50" relative="1" as="geometry">
            <mxPoint x="420" y="400" as="sourcePoint" />
            <mxPoint x="160" y="130" as="targetPoint" />
            <Array as="points">
              <mxPoint x="405" y="130" />
            </Array>
          </mxGeometry>
        </mxCell>
        <mxCell id="LWBJsEEs3vovtmcKvovJ-11" value="Ya" style="text;html=1;strokeColor=none;fillColor=none;align=center;verticalAlign=middle;whiteSpace=wrap;rounded=0;" parent="1" vertex="1">
          <mxGeometry x="230" y="260" width="60" height="30" as="geometry" />
        </mxCell>
        <mxCell id="LWBJsEEs3vovtmcKvovJ-12" style="edgeStyle=orthogonalEdgeStyle;rounded=0;orthogonalLoop=1;jettySize=auto;html=1;exitX=0.5;exitY=1;exitDx=0;exitDy=0;entryX=0.5;entryY=0;entryDx=0;entryDy=0;" parent="1" source="LWBJsEEs3vovtmcKvovJ-13" target="LWBJsEEs3vovtmcKvovJ-17" edge="1">
          <mxGeometry relative="1" as="geometry" />
        </mxCell>
        <mxCell id="LWBJsEEs3vovtmcKvovJ-13" value="MASUKKAN ID&lt;br&gt;pengguna dan kata laluan" style="shape=parallelogram;perimeter=parallelogramPerimeter;whiteSpace=wrap;html=1;fixedSize=1;" parent="1" vertex="1">
          <mxGeometry x="90" y="370" width="140" height="60" as="geometry" />
        </mxCell>
        <mxCell id="LWBJsEEs3vovtmcKvovJ-14" value="Tidak" style="text;html=1;strokeColor=none;fillColor=none;align=center;verticalAlign=middle;whiteSpace=wrap;rounded=0;" parent="1" vertex="1">
          <mxGeometry x="160" y="330" width="60" height="30" as="geometry" />
        </mxCell>
        <mxCell id="LWBJsEEs3vovtmcKvovJ-15" style="edgeStyle=orthogonalEdgeStyle;rounded=0;orthogonalLoop=1;jettySize=auto;html=1;exitX=1;exitY=0.5;exitDx=0;exitDy=0;entryX=0;entryY=0.5;entryDx=0;entryDy=0;" parent="1" source="LWBJsEEs3vovtmcKvovJ-17" target="LWBJsEEs3vovtmcKvovJ-19" edge="1">
          <mxGeometry relative="1" as="geometry" />
        </mxCell>
        <mxCell id="LWBJsEEs3vovtmcKvovJ-27" value="" style="edgeStyle=orthogonalEdgeStyle;rounded=0;orthogonalLoop=1;jettySize=auto;html=1;" parent="1" source="LWBJsEEs3vovtmcKvovJ-17" target="LWBJsEEs3vovtmcKvovJ-25" edge="1">
          <mxGeometry relative="1" as="geometry" />
        </mxCell>
        <mxCell id="LWBJsEEs3vovtmcKvovJ-17" value="Akaun dijumpa&lt;br&gt;dalam sistem?" style="rhombus;whiteSpace=wrap;html=1;" parent="1" vertex="1">
          <mxGeometry x="90" y="470" width="140" height="70" as="geometry" />
        </mxCell>
        <mxCell id="LWBJsEEs3vovtmcKvovJ-18" style="edgeStyle=orthogonalEdgeStyle;rounded=0;orthogonalLoop=1;jettySize=auto;html=1;exitX=1;exitY=0.5;exitDx=0;exitDy=0;" parent="1" source="LWBJsEEs3vovtmcKvovJ-19" edge="1">
          <mxGeometry relative="1" as="geometry">
            <mxPoint x="405" y="130" as="targetPoint" />
            <Array as="points">
              <mxPoint x="560" y="505" />
              <mxPoint x="560" y="130" />
            </Array>
          </mxGeometry>
        </mxCell>
        <mxCell id="LWBJsEEs3vovtmcKvovJ-19" value="PAPAR &quot;Kesalahan pada username atau password&quot;" style="shape=parallelogram;perimeter=parallelogramPerimeter;whiteSpace=wrap;html=1;fixedSize=1;" parent="1" vertex="1">
          <mxGeometry x="310" y="475" width="190" height="60" as="geometry" />
        </mxCell>
        <mxCell id="LWBJsEEs3vovtmcKvovJ-20" value="Tidak" style="text;html=1;strokeColor=none;fillColor=none;align=center;verticalAlign=middle;whiteSpace=wrap;rounded=0;" parent="1" vertex="1">
          <mxGeometry x="230" y="475" width="60" height="30" as="geometry" />
        </mxCell>
        <mxCell id="LWBJsEEs3vovtmcKvovJ-34" value="" style="edgeStyle=orthogonalEdgeStyle;rounded=0;orthogonalLoop=1;jettySize=auto;html=1;" parent="1" source="LWBJsEEs3vovtmcKvovJ-22" target="LWBJsEEs3vovtmcKvovJ-23" edge="1">
          <mxGeometry relative="1" as="geometry" />
        </mxCell>
        <mxCell id="LWBJsEEs3vovtmcKvovJ-22" value="PAPAR&lt;br&gt;&quot;Anda telah log masuk&quot;" style="shape=parallelogram;perimeter=parallelogramPerimeter;whiteSpace=wrap;html=1;fixedSize=1;" parent="1" vertex="1">
          <mxGeometry x="345" y="680" width="120" height="60" as="geometry" />
        </mxCell>
        <mxCell id="LWBJsEEs3vovtmcKvovJ-23" value="" style="ellipse;whiteSpace=wrap;html=1;aspect=fixed;" parent="1" vertex="1">
          <mxGeometry x="385" y="780" width="40" height="40" as="geometry" />
        </mxCell>
        <mxCell id="LWBJsEEs3vovtmcKvovJ-24" value="Ya" style="text;html=1;strokeColor=none;fillColor=none;align=center;verticalAlign=middle;whiteSpace=wrap;rounded=0;" parent="1" vertex="1">
          <mxGeometry x="160" y="540" width="60" height="30" as="geometry" />
        </mxCell>
        <mxCell id="LWBJsEEs3vovtmcKvovJ-30" value="" style="edgeStyle=orthogonalEdgeStyle;rounded=0;orthogonalLoop=1;jettySize=auto;html=1;" parent="1" source="LWBJsEEs3vovtmcKvovJ-25" target="LWBJsEEs3vovtmcKvovJ-28" edge="1">
          <mxGeometry relative="1" as="geometry" />
        </mxCell>
        <mxCell id="LWBJsEEs3vovtmcKvovJ-31" value="" style="edgeStyle=orthogonalEdgeStyle;rounded=0;orthogonalLoop=1;jettySize=auto;html=1;" parent="1" source="LWBJsEEs3vovtmcKvovJ-25" target="LWBJsEEs3vovtmcKvovJ-29" edge="1">
          <mxGeometry relative="1" as="geometry" />
        </mxCell>
        <mxCell id="LWBJsEEs3vovtmcKvovJ-25" value="Akaun pelajar?" style="rhombus;whiteSpace=wrap;html=1;" parent="1" vertex="1">
          <mxGeometry x="90" y="580" width="140" height="70" as="geometry" />
        </mxCell>
        <mxCell id="LWBJsEEs3vovtmcKvovJ-32" value="" style="edgeStyle=orthogonalEdgeStyle;rounded=0;orthogonalLoop=1;jettySize=auto;html=1;" parent="1" source="LWBJsEEs3vovtmcKvovJ-28" target="LWBJsEEs3vovtmcKvovJ-22" edge="1">
          <mxGeometry relative="1" as="geometry" />
        </mxCell>
        <mxCell id="LWBJsEEs3vovtmcKvovJ-28" value="session = pelajar" style="rounded=0;whiteSpace=wrap;html=1;" parent="1" vertex="1">
          <mxGeometry x="330" y="595" width="150" height="40" as="geometry" />
        </mxCell>
        <mxCell id="LWBJsEEs3vovtmcKvovJ-33" value="" style="edgeStyle=orthogonalEdgeStyle;rounded=0;orthogonalLoop=1;jettySize=auto;html=1;" parent="1" source="LWBJsEEs3vovtmcKvovJ-29" target="LWBJsEEs3vovtmcKvovJ-22" edge="1">
          <mxGeometry relative="1" as="geometry" />
        </mxCell>
        <mxCell id="LWBJsEEs3vovtmcKvovJ-29" value="session = guru" style="rounded=0;whiteSpace=wrap;html=1;" parent="1" vertex="1">
          <mxGeometry x="85" y="690" width="150" height="40" as="geometry" />
        </mxCell>
        <mxCell id="LWBJsEEs3vovtmcKvovJ-35" value="Ya" style="text;html=1;strokeColor=none;fillColor=none;align=center;verticalAlign=middle;whiteSpace=wrap;rounded=0;" parent="1" vertex="1">
          <mxGeometry x="230" y="585" width="60" height="30" as="geometry" />
        </mxCell>
        <mxCell id="LWBJsEEs3vovtmcKvovJ-36" value="Tidak" style="text;html=1;strokeColor=none;fillColor=none;align=center;verticalAlign=middle;whiteSpace=wrap;rounded=0;" parent="1" vertex="1">
          <mxGeometry x="160" y="650" width="60" height="30" as="geometry" />
        </mxCell>
      </root>
    </mxGraphModel>
  </diagram>
</mxfile>
